<svg xmlns="http://www.w3.org/2000/svg" xmlns:xlink="http://www.w3.org/1999/xlink" id="Layer_1" width="133.329" height="65.998" x="0" y="0" enable-background="new 232.553 387.426 133.329 65.998" version="1.1" viewBox="232.553 387.426 133.329 65.998" xml:space="preserve"><g><polygon fill="#1E1E1E" points="289.776 453.423 365.882 453.423 365.882 437.144"/><path fill="#1E1E1E" d="M285.558,448.294l74.57-16.35c2.021-0.443,3.943-1.098,5.754-1.928v-42.591H243.027l8.58,39.128 C254.965,441.871,270.243,451.654,285.558,448.294z"/><path fill="#FFF" d="M293.097,432.271l53.863-11.811c11.613-2.547,17.58-10.407,18.922-18.984v-7.69v-6.357h-87.546 C252.496,397.655,263.161,438.835,293.097,432.271z"/><path fill="#1E1E1E" d="M356.349,387.427c1.207,1.818,2.105,3.887,2.602,6.146c2.145,9.789-4.049,19.465-13.838,21.61 c-9.789,2.146-19.463-4.049-21.609-13.838c-1.098-4.999-0.016-9.968,2.605-13.92L356.349,387.427L356.349,387.427z"/><path fill="#FFCB05" d="M351.742,387.427c1.779,1.862,3.088,4.221,3.68,6.921c1.719,7.839-3.244,15.588-11.084,17.309 c-7.84,1.719-15.59-3.243-17.309-11.083c-1.074-4.901,0.463-9.768,3.682-13.146L351.742,387.427L351.742,387.427z"/><circle cx="288.278" cy="409.07" r="18.184" fill="#1E1E1E"/><circle cx="288.278" cy="409.07" r="14.533" fill="#FFCB05"/><path fill="#FFF" d="M284.361,396.4c1.683-0.26,2.944,0.944,3.174,2.283c0.229,1.33-0.561,2.795-2.212,3.016 c-0.043,0.009-0.086,0.017-0.128,0.025c-3.524,0.772-5.753,4.256-4.98,7.779c0.133,0.608-0.65,2.431-1.913,2.865 c-1.605,0.553-2.774-0.646-3.024-1.783C273.868,404.161,277.935,397.81,284.361,396.4z"/><path fill="#FFF" d="M340.146,387.427c0.189,1.271-0.574,2.649-2.146,2.858c-0.041,0.009-0.082,0.017-0.123,0.025 c-3.406,0.747-5.561,4.112-4.812,7.518c0.129,0.589-0.629,2.349-1.85,2.77c-1.551,0.534-2.682-0.625-2.922-1.724 c-0.969-4.416,0.74-8.796,4.043-11.447H340.146z"/><circle cx="337.986" cy="400.586" r="7.969" fill="#1E1E1E"/><circle cx="285.039" cy="412.196" r="7.969" fill="#1E1E1E"/><circle cx="279.265" cy="408.043" r="3.833" fill="#FFF"/><circle cx="332.234" cy="396.428" r="3.833" fill="#FFF"/><path fill="#1E1E1E" d="M242.235,401.526c-2.614,0.888-4.213,3.638-3.609,6.394l4.77,21.753c0.604,2.756,3.208,4.586,5.953,4.297 L242.235,401.526z"/><path fill="#1E1E1E" d="M236.195,412.873c-6.432,2.184-3.678,14.744,3.078,14.037L236.195,412.873z"/><path fill="#1E1E1E" d="M320.748,412.152L320.748,412.152c0.877,0.562,1.135,1.737,0.572,2.615l-0.812,1.271l1.271,0.813 c0.877,0.562,1.137,1.739,0.572,2.616l0,0c-0.561,0.878-1.736,1.137-2.613,0.574l-1.273-0.814l-0.812,1.271 c-0.562,0.877-1.738,1.134-2.615,0.573l0,0c-0.879-0.562-1.137-1.738-0.574-2.616l0.814-1.271l-1.271-0.812 c-0.879-0.562-1.137-1.739-0.574-2.616l0,0c0.562-0.877,1.738-1.136,2.615-0.574l1.271,0.814l0.812-1.271 C318.693,411.849,319.869,411.59,320.748,412.152z"/></g></svg>