<?xml version="1.0" encoding="utf-8"?>
<!-- Generator: Adobe Illustrator 15.0.2, SVG Export Plug-In . SVG Version: 6.00 Build 0)  -->
<!DOCTYPE svg PUBLIC "-//W3C//DTD SVG 1.1//EN" "http://www.w3.org/Graphics/SVG/1.1/DTD/svg11.dtd">
<svg version="1.1" id="Layer_1" xmlns="http://www.w3.org/2000/svg" xmlns:xlink="http://www.w3.org/1999/xlink" x="0px" y="0px"
	 width="331.271px" height="260.085px" viewBox="150.443 286.909 331.271 260.085"
	 enable-background="new 150.443 286.909 331.271 260.085" xml:space="preserve">
<g>
	<path fill="#EF4623" d="M422.222,546.992v-6.59c0-13.459-11.012-24.471-24.471-24.471H371.05v31.061H422.222L422.222,546.992z"/>
	<path fill="#EF4623" d="M267.724,515.931H245.91c-14.009,0-25.471,11.461-25.471,25.473v5.59h47.284L267.724,515.931
		L267.724,515.931z"/>
	<path fill="#1E1E1E" d="M371.05,546.992v-31.061v-27.9c0-11.859-9.703-21.562-21.561-21.562h-60.203
		c-11.859,0-21.562,9.703-21.562,21.562v27.9v31.061H371.05z"/>
	<rect x="371.05" y="515.931" fill="#D33729" width="16.748" height="31.062"/>
	<path fill="#1E1E1E" d="M301.494,461.675h38.256c7.857,0,14.285-6.43,14.285-14.287v-37.883c0-7.856-6.428-14.285-14.285-14.285
		h-38.256c-7.856,0-14.286,6.428-14.286,14.285v37.883C287.208,455.246,293.637,461.675,301.494,461.675z"/>
	<path fill="#F2F1ED" d="M306.904,454.64h27.633c16.207,0,16.205-23.727,0-23.727h-27.633
		C290.698,430.914,290.696,454.64,306.904,454.64z"/>
	<path fill="#F2F1ED" d="M287.147,347.307c4.101,0,7.957,1.045,11.317,2.882c3.351-8.984,12.006-15.383,22.156-15.383
		c10.152,0,18.807,6.399,22.156,15.383c3.361-1.837,7.219-2.882,11.316-2.882c13.057,0,23.641,10.584,23.641,23.639
		c0,13.055-10.584,23.639-23.641,23.639v30.118h-66.947v-30.118c-13.055,0-23.639-10.584-23.639-23.639
		C263.507,357.891,274.093,347.307,287.147,347.307z"/>
	<path fill="#1E1E1E" d="M334.199,451.859c5.008,0,9.092-4.084,9.092-9.094c0-5.008-4.084-9.092-9.092-9.092
		s-9.094,4.084-9.094,9.092C325.105,447.775,329.191,451.859,334.199,451.859z"/>
	<path fill="#FFCB11" d="M334.199,450.048c4.01,0,7.283-3.27,7.283-7.281s-3.273-7.281-7.283-7.281c-4.012,0-7.283,3.27-7.283,7.281
		S330.187,450.048,334.199,450.048z"/>
	<path fill="#1E1E1E" d="M307.035,451.878c5.02,0,9.113-4.094,9.113-9.111s-4.096-9.111-9.113-9.111s-9.112,4.094-9.112,9.111
		S302.017,451.878,307.035,451.878z"/>
	<path fill="#FFCB11" d="M307.035,450.048c4.012,0,7.283-3.27,7.283-7.281s-3.271-7.281-7.283-7.281
		c-4.011,0-7.281,3.27-7.281,7.281S303.024,450.048,307.035,450.048z"/>
	<path fill="#666B68" d="M292.367,486.089c2.501,0,4.529,2.027,4.529,4.529s-2.028,4.529-4.529,4.529
		c-2.502,0-4.529-2.027-4.529-4.529S289.865,486.089,292.367,486.089L292.367,486.089z M292.367,487.855
		c-0.544,0-0.988,0.445-0.988,0.988v0.787h-0.787c-0.544,0-0.988,0.445-0.988,0.988l0,0c0,0.543,0.444,0.988,0.988,0.988h0.787
		v0.785c0,0.543,0.444,0.988,0.988,0.988l0,0c0.543,0,0.987-0.445,0.987-0.988v-0.785h0.788c0.543,0,0.987-0.445,0.987-0.988l0,0
		c0-0.543-0.444-0.988-0.987-0.988h-0.788v-0.787C293.354,488.3,292.91,487.855,292.367,487.855L292.367,487.855z"/>
	<path fill="#666B68" d="M349.289,487.416c1.77,1.77,1.77,4.637,0,6.406c-1.77,1.768-4.637,1.768-6.404,0
		c-1.77-1.77-1.77-4.637,0-6.406C344.652,485.648,347.521,485.648,349.289,487.416L349.289,487.416z M348.041,488.664
		c-0.385-0.383-1.014-0.383-1.398,0l-0.557,0.559l-0.557-0.559c-0.385-0.383-1.014-0.383-1.396,0l0,0
		c-0.385,0.385-0.385,1.014,0,1.398l0.559,0.557l-0.559,0.557c-0.385,0.385-0.385,1.016,0,1.396l0,0
		c0.385,0.385,1.014,0.385,1.396,0l0.557-0.557l0.557,0.557c0.387,0.385,1.016,0.385,1.398,0l0,0c0.385-0.383,0.385-1.012,0-1.396
		l-0.557-0.557l0.557-0.557C348.425,489.677,348.425,489.048,348.041,488.664L348.041,488.664z"/>
	<path fill="#F2F1ED" d="M319.386,490.615L319.386,490.615c10.938,0,19.885,8.947,19.885,19.885h-39.768l0,0
		C299.503,499.562,308.451,490.615,319.386,490.615L319.386,490.615z"/>
	<path fill="#EF4623" d="M319.386,490.615V510.5h19.885C339.271,499.562,330.324,490.615,319.386,490.615z"/>
	<path fill="#1E1E1E" d="M319.386,506.535L319.386,506.535c2.182,0,3.965,1.783,3.965,3.965l0,0c0,2.18-1.783,3.963-3.963,3.963
		h-0.002c-2.18,0-3.963-1.783-3.963-3.963l0,0C315.423,508.318,317.207,506.535,319.386,506.535z"/>
	<path fill="#1E1E1E" d="M332.158,499.757L332.158,499.757c0.652,0.773,0.553,1.941-0.221,2.594l-15.572,13.139
		c-0.773,0.65-1.941,0.553-2.596-0.223l0,0c-0.652-0.771-0.555-1.939,0.221-2.594l15.572-13.137
		C330.337,498.884,331.505,498.982,332.158,499.757z"/>
	<circle fill="#1E1E1E" cx="319.507" cy="494.764" r="1.403"/>
	<path fill="#F2F1ED" d="M308.035,516.353L308.035,516.353c4.488,0,8.162,3.676,8.162,8.162l0,0c0,4.488-3.674,8.16-8.162,8.16l0,0
		c-4.488,0-8.16-3.672-8.16-8.16l0,0C299.875,520.027,303.546,516.353,308.035,516.353z"/>
	<path fill="#FFCB11" d="M308.035,516.353v8.162h8.162C316.197,520.027,312.523,516.353,308.035,516.353z"/>
	<path fill="#1E1E1E" d="M308.035,522.888L308.035,522.888c0.895,0,1.627,0.73,1.627,1.627l0,0c0,0.896-0.732,1.625-1.627,1.625l0,0
		c-0.895,0-1.625-0.729-1.625-1.625l0,0C306.41,523.619,307.14,522.888,308.035,522.888z"/>
	<path fill="#1E1E1E" d="M313.054,519.855L313.054,519.855c0.283,0.305,0.268,0.785-0.037,1.068l-6.115,5.703
		c-0.305,0.283-0.783,0.268-1.068-0.037l0,0c-0.283-0.303-0.267-0.785,0.037-1.068l6.115-5.703
		C312.289,519.535,312.771,519.552,313.054,519.855z"/>
	<path fill="#F2F1ED" d="M330.265,516.353L330.265,516.353c4.488,0,8.16,3.676,8.16,8.162l0,0c0,4.488-3.672,8.16-8.16,8.16l0,0
		c-4.488,0-8.162-3.672-8.162-8.16l0,0C322.103,520.027,325.777,516.353,330.265,516.353z"/>
	<path fill="#00AC9E" d="M330.265,516.353v8.162h8.16C338.425,520.027,334.753,516.353,330.265,516.353z"/>
	<path fill="#1E1E1E" d="M330.265,522.888L330.265,522.888c0.895,0,1.627,0.73,1.627,1.627l0,0c0,0.896-0.732,1.625-1.627,1.625l0,0
		c-0.895,0-1.627-0.729-1.627-1.625l0,0C328.638,523.619,329.371,522.888,330.265,522.888z"/>
	<path fill="#1E1E1E" d="M334.97,529.367L334.97,529.367c-0.293,0.295-0.773,0.295-1.066,0l-5.914-5.912
		c-0.293-0.293-0.293-0.773,0-1.068l0,0c0.295-0.293,0.773-0.293,1.068,0l5.912,5.912
		C335.265,528.593,335.265,529.074,334.97,529.367z"/>
	<circle fill="#1E1E1E" cx="304.149" cy="506.604" r="1.403"/>
	<circle fill="#1E1E1E" cx="312.394" cy="496.254" r="1.403"/>
	<circle fill="#1E1E1E" cx="307.167" cy="500.633" r="1.403"/>
	<circle fill="#1E1E1E" cx="326.158" cy="496.375" r="1.403"/>
	<circle fill="#1E1E1E" cx="334.32" cy="506.465" r="1.403"/>
	<g>
		<path fill="#F2F1ED" d="M344.835,530.431L344.835,530.431c0-0.693,0.57-1.266,1.266-1.266h2.598c0.693,0,1.264,0.57,1.264,1.266
			l0,0c0,0.695-0.568,1.266-1.264,1.266h-2.598C345.406,531.695,344.835,531.126,344.835,530.431z"/>
		<path fill="#F2F1ED" d="M344.835,527.058L344.835,527.058c0-0.693,0.57-1.266,1.266-1.266h2.598c0.693,0,1.264,0.57,1.264,1.266
			l0,0c0,0.695-0.568,1.268-1.264,1.268h-2.598C345.406,528.324,344.835,527.753,344.835,527.058z"/>
		<path fill="#F2F1ED" d="M344.835,523.685L344.835,523.685c0-0.693,0.57-1.264,1.266-1.264h2.598c0.693,0,1.264,0.568,1.264,1.264
			l0,0c0,0.695-0.568,1.268-1.264,1.268h-2.598C345.406,524.951,344.835,524.38,344.835,523.685z"/>
		<path fill="#F2F1ED" d="M344.835,520.314L344.835,520.314c0-0.697,0.57-1.266,1.266-1.266h2.598c0.693,0,1.264,0.568,1.264,1.266
			l0,0c0,0.695-0.568,1.264-1.264,1.264h-2.598C345.406,521.578,344.835,521.009,344.835,520.314z"/>
		<path fill="#FFCB11" d="M344.835,516.941L344.835,516.941c0-0.695,0.57-1.266,1.266-1.266h2.598c0.693,0,1.264,0.57,1.264,1.266
			l0,0c0,0.695-0.568,1.264-1.264,1.264h-2.598C345.406,518.205,344.835,517.636,344.835,516.941z"/>
		<path fill="#FFCB11" d="M344.835,513.568L344.835,513.568c0-0.695,0.57-1.264,1.266-1.264h2.598c0.693,0,1.264,0.568,1.264,1.264
			l0,0c0,0.695-0.568,1.266-1.264,1.266h-2.598C345.406,514.833,344.835,514.263,344.835,513.568z"/>
		<path fill="#FFCB11" d="M344.835,510.195L344.835,510.195c0-0.695,0.57-1.264,1.266-1.264h2.598c0.693,0,1.264,0.568,1.264,1.264
			l0,0c0,0.697-0.568,1.266-1.264,1.266h-2.598C345.406,511.46,344.835,510.892,344.835,510.195z"/>
		<path fill="#00AC9E" d="M344.835,506.824L344.835,506.824c0-0.695,0.57-1.266,1.266-1.266h2.598c0.693,0,1.264,0.57,1.264,1.266
			l0,0c0,0.695-0.568,1.264-1.264,1.264h-2.598C345.406,508.087,344.835,507.519,344.835,506.824z"/>
		<path fill="#00AC9E" d="M344.835,503.451L344.835,503.451c0-0.695,0.57-1.266,1.266-1.266h2.598c0.693,0,1.264,0.57,1.264,1.266
			l0,0c0,0.695-0.568,1.264-1.264,1.264h-2.598C345.406,504.714,344.835,504.146,344.835,503.451z"/>
	</g>
	<path fill="#FFFFFF" d="M306.478,436.144c0.852,0.057,1.34,0.779,1.309,1.459c-0.029,0.678-0.574,1.309-1.406,1.238
		c-0.021,0-0.043,0-0.064,0c-1.809,0-3.273,1.465-3.273,3.271c0,0.312-0.578,1.121-1.242,1.197c-0.846,0.1-1.289-0.613-1.289-1.197
		C300.509,438.818,303.181,436.144,306.478,436.144z"/>
	<path fill="#FFFFFF" d="M333.484,436.302c0.822,0.053,1.293,0.752,1.264,1.41c-0.029,0.652-0.555,1.264-1.359,1.195
		c-0.02,0-0.041,0-0.062,0c-1.746,0-3.162,1.416-3.162,3.162c0,0.303-0.559,1.082-1.201,1.158c-0.816,0.094-1.246-0.596-1.246-1.158
		C327.716,438.884,330.298,436.302,333.484,436.302z"/>
	<path fill="#1E1E1E" d="M334.107,446.869c2.199,0,3.992-1.795,3.992-3.994s-1.793-3.994-3.992-3.994s-3.994,1.795-3.994,3.994
		S331.908,446.869,334.107,446.869z"/>
	<path fill="#1E1E1E" d="M306.943,446.869c2.199,0,3.994-1.795,3.994-3.994s-1.795-3.994-3.994-3.994s-3.992,1.795-3.992,3.994
		S304.744,446.869,306.943,446.869z"/>
	<path fill="#FFFFFF" d="M304.455,442.035c1.059,0,1.922-0.863,1.922-1.92c0-1.059-0.863-1.922-1.922-1.922
		c-1.058,0-1.92,0.863-1.92,1.922C302.535,441.171,303.397,442.035,304.455,442.035z"/>
	<path fill="#FFFFFF" d="M331.628,442.035c1.059,0,1.922-0.863,1.922-1.92c0-1.059-0.863-1.922-1.922-1.922
		c-1.057,0-1.92,0.863-1.92,1.922C329.708,441.171,330.572,442.035,331.628,442.035z"/>
	<circle fill="#1E1E1E" cx="424.275" cy="487.112" r="8.003"/>
	<path fill="#F2F1ED" d="M153.128,395.63h97.723c1.477,0,2.686,1.208,2.686,2.686l0,0c0,1.477-1.209,2.685-2.686,2.685h-97.723
		c-1.477,0-2.685-1.208-2.685-2.685l0,0C150.443,396.838,151.651,395.63,153.128,395.63z"/>
	<path fill="#1E1E1E" d="M200.096,470.873c-4.499-6.143-7.814-13.307-9.448-21.291c-1.762-8.611-1.563-18.131,1.229-28.283
		c-1.986-1.215-3.715-2.782-5.113-4.604c-2.457-3.202-3.886-7.188-3.886-11.432h7.133c0,2.648,0.886,5.128,2.409,7.112
		c1.519,1.98,3.68,3.474,6.233,4.158c3.117,0.835,6.273,0.331,8.854-1.159h0.014c2.577-1.488,4.589-3.968,5.425-7.089
		c0.142-0.53,0.244-1.029,0.305-1.494c0.059-0.447,0.088-0.958,0.088-1.528h7.133c0,0.761-0.058,1.578-0.172,2.448
		c-0.112,0.853-0.27,1.658-0.472,2.414c-1.339,5-4.588,8.991-8.758,11.403l0.003,0.006c-1.571,0.906-3.272,1.588-5.049,2.014
		c-0.542,1.785-0.983,3.539-1.329,5.264c-1.291,6.453-1.234,12.465-0.117,17.93c1.066,5.211,3.102,9.953,5.853,14.123
		C205.535,462.259,201.645,466.041,200.096,470.873L200.096,470.873z M220.452,477.843v-2.311v-3.367l-2.916-1.684l-2.916-1.684
		l-2.916,1.684l-2.916,1.684v3.367v3.367l2.916,1.684l2.916,1.684l2.916-1.684l2.183-1.26L220.452,477.843z"/>
	<path fill="#1E1E1E" d="M437.615,418.683c0,0.571,0.029,1.082,0.088,1.528c0.062,0.465,0.164,0.964,0.307,1.494
		c0.836,3.121,2.848,5.602,5.424,7.09h0.016c2.58,1.49,5.734,1.994,8.854,1.158c2.553-0.684,4.713-2.178,6.232-4.158
		c1.521-1.984,2.408-4.462,2.408-7.112h7.133c0,4.245-1.428,8.229-3.885,11.432c-2.461,3.207-5.945,5.623-10.051,6.723
		c-5.008,1.342-10.092,0.523-14.26-1.885l0.002-0.006c-4.17-2.41-7.418-6.4-8.758-11.4c-0.201-0.756-0.359-1.562-0.471-2.416
		c-0.115-0.869-0.174-1.688-0.174-2.448H437.615L437.615,418.683z"/>
	<path fill="#EF4623" d="M423.589,474.431c-6.85,0-12.402,5.557-12.402,12.404c0,6.852,5.553,12.404,12.402,12.404
		c6.852,0,12.404-5.553,12.404-12.404C435.994,479.986,430.441,474.431,423.589,474.431L423.589,474.431z M423.589,481.359
		l2.373,1.369l2.371,1.369v2.738v2.738l-2.371,1.369l-2.373,1.367l-2.371-1.367l-2.371-1.369v-2.738v-2.738l2.371-1.369
		L423.589,481.359z"/>
	<path fill="#EF4623" d="M425.144,414.462h48.881c4.229,0,7.689-3.461,7.689-7.69v-30.498h-6.133v27.349
		c0,1.408-0.574,2.687-1.502,3.613c-0.926,0.926-2.205,1.502-3.613,1.502h-41.715c-1.408,0-2.688-0.576-3.613-1.502
		c-0.928-0.928-1.502-2.206-1.502-3.613v-27.349h-6.184v30.498C417.453,411,420.914,414.462,425.144,414.462L425.144,414.462z
		 M474.001,376.274v27.349c0,0.972-0.396,1.854-1.037,2.496c-0.643,0.641-1.525,1.04-2.498,1.04h-41.715
		c-0.973,0-1.855-0.398-2.498-1.04c-0.641-0.642-1.039-1.524-1.039-2.496v-27.349H474.001z"/>
	<path fill="#EF4623" d="M214.62,463.126c6.85,0,12.403,5.555,12.403,12.404c0,6.852-5.553,12.404-12.403,12.404
		c-6.851,0-12.405-5.553-12.405-12.404C202.215,468.681,207.77,463.126,214.62,463.126L214.62,463.126z M214.62,470.054
		l-2.372,1.369l-2.372,1.369v2.738v2.738l2.372,1.369l2.372,1.371l2.372-1.371l2.372-1.369v-2.738v-2.738l-2.372-1.369
		L214.62,470.054z"/>
	<path fill="#1E1E1E" d="M262.695,484.31L262.695,484.31c1.37,0.01,2.483,1.139,2.476,2.508l-0.066,10.656
		c-0.009,1.369-1.137,2.484-2.507,2.479l0,0c-1.37-0.01-2.484-1.137-2.476-2.508l0.066-10.658
		C260.197,485.416,261.325,484.3,262.695,484.31L262.695,484.31z M233.135,477.671L233.135,477.671
		c1.182,0.691,1.582,2.229,0.89,3.408l-5.389,9.195c-0.692,1.182-2.227,1.582-3.409,0.891l0,0c-1.182-0.693-1.582-2.227-0.89-3.41
		l5.389-9.195C230.418,477.378,231.952,476.978,233.135,477.671L233.135,477.671z M238.536,480.208
		c-1.256-0.549-2.732,0.029-3.281,1.285l-4.269,9.766c-0.549,1.254,0.029,2.73,1.284,3.279l0,0c1.256,0.549,2.731-0.029,3.28-1.285
		l4.27-9.764C240.369,482.234,239.791,480.757,238.536,480.208L238.536,480.208L238.536,480.208z M244.215,481.968L244.215,481.968
		c1.312,0.396,2.059,1.795,1.661,3.107l-3.097,10.197c-0.397,1.311-1.796,2.059-3.107,1.66l0,0c-1.311-0.398-2.058-1.795-1.66-3.107
		l3.096-10.197C241.506,482.316,242.904,481.57,244.215,481.968L244.215,481.968z M250.104,483.281
		c-1.351-0.23-2.646,0.686-2.877,2.035l-1.799,10.506c-0.231,1.35,0.684,2.645,2.034,2.875l0,0c1.351,0.232,2.646-0.684,2.876-2.033
		l1.8-10.506C252.369,484.808,251.454,483.513,250.104,483.281L250.104,483.281L250.104,483.281z M256.305,484.099L256.305,484.099
		c1.367,0.102,2.404,1.299,2.307,2.664l-0.766,10.631c-0.099,1.367-1.297,2.404-2.664,2.307l0,0c-1.366-0.1-2.404-1.297-2.306-2.662
		l0.766-10.631C253.74,485.039,254.938,484.001,256.305,484.099z"/>
	<path fill="#1E1E1E" d="M368.808,485.212c7.283,5.859,16.102,8.188,24.844,7.631c5.102-0.324,10.172-1.621,14.908-3.764
		c0.766,5.166,4.131,9.484,8.723,11.584c-7.094,3.674-14.883,5.891-22.738,6.389c-12.119,0.771-24.408-2.51-34.652-10.75
		L368.808,485.212z"/>
	<path fill="#1E1E1E" d="M439.529,441.5L439.529,441.5c-0.139,1.309,0.818,2.492,2.127,2.631l10.18,1.078
		c1.309,0.139,2.492-0.82,2.631-2.129l0,0c0.141-1.309-0.816-2.492-2.127-2.631l-10.18-1.076
		C440.851,439.234,439.667,440.191,439.529,441.5L439.529,441.5z M430.123,469.9L430.123,469.9c-0.82,1.029-0.65,2.543,0.379,3.363
		l8,6.385c1.029,0.82,2.541,0.65,3.363-0.379l0,0c0.818-1.027,0.648-2.541-0.379-3.361l-8-6.385
		C432.457,468.703,430.943,468.873,430.123,469.9L430.123,469.9z M433.291,464.621c0.688-1.121,2.17-1.475,3.291-0.787l8.721,5.359
		c1.121,0.688,1.477,2.168,0.787,3.291l0,0c-0.689,1.121-2.17,1.475-3.291,0.785l-8.723-5.357
		C432.955,467.222,432.601,465.742,433.291,464.621L433.291,464.621L433.291,464.621z M436.113,459.078L436.113,459.078
		c-0.602,1.172-0.135,2.621,1.037,3.221l9.109,4.668c1.172,0.604,2.621,0.133,3.221-1.037l0,0c0.602-1.172,0.135-2.621-1.037-3.221
		l-9.109-4.668C438.162,457.439,436.712,457.906,436.113,459.078L436.113,459.078z M437.779,453.162
		c0.449-1.238,1.828-1.883,3.064-1.434l9.623,3.49c1.236,0.447,1.883,1.826,1.434,3.064l0,0c-0.447,1.234-1.828,1.883-3.064,1.434
		l-9.623-3.49C437.976,455.777,437.33,454.398,437.779,453.162L437.779,453.162L437.779,453.162z M438.839,447.509L438.839,447.509
		c-0.291,1.283,0.521,2.57,1.805,2.861l9.982,2.264c1.283,0.291,2.572-0.52,2.861-1.805l0,0c0.291-1.283-0.521-2.572-1.805-2.863
		l-9.982-2.262C440.417,445.414,439.13,446.226,438.839,447.509z"/>
	<path fill="#F2F1ED" d="M436.259,341.895h15.549l0.033,3.83v0.573h-7.529c-0.451,0-0.822,0.371-0.822,0.823l0,0
		c0,0.453,0.371,0.823,0.822,0.823h7.529v1.764h-2.943c-0.451,0-0.822,0.371-0.822,0.823l0,0c0,0.453,0.371,0.823,0.822,0.823h2.943
		v1.764h-2.943c-0.451,0-0.822,0.37-0.822,0.823l0,0c0,0.453,0.371,0.823,0.822,0.823h2.943v1.764h-7.529
		c-0.451,0-0.822,0.37-0.822,0.823l0,0c0,0.453,0.371,0.823,0.822,0.823h7.529v1.764h-2.943c-0.451,0-0.822,0.37-0.822,0.823l0,0
		c0,0.453,0.371,0.823,0.822,0.823h2.943v1.764h-2.943c-0.451,0-0.822,0.371-0.822,0.823l0,0c0,0.453,0.371,0.823,0.822,0.823h2.943
		v1.764h-7.529c-0.451,0-0.822,0.371-0.822,0.823l0,0c0,0.453,0.371,0.823,0.822,0.823h7.529v1.764h-2.943
		c-0.451,0-0.822,0.371-0.822,0.823l0,0c0,0.453,0.371,0.823,0.822,0.823h2.943v1.847h-15.545v-27.486L436.259,341.895z"/>
	<path fill="#1E1E1E" d="M463.109,344.033v0.142h-7.836l3.963-10.378L463.109,344.033L463.109,344.033z M463.109,345.527v28.219
		h-7.854v-28.219H463.109z"/>
	<path fill="#EF4623" d="M473.789,355.555v0.212h-7.854v-0.026l2.363-7.587h3.217L473.789,355.555L473.789,355.555z M473.789,357.12
		v16.626h-7.854V357.12H473.789z"/>
	<path fill="#EF4623" d="M433.158,358.779v14.967h-3.209v-13.698C431.189,359.931,432.369,359.508,433.158,358.779L433.158,358.779z
		 M428.513,373.746h-3.209v-14.967c0.789,0.729,1.969,1.152,3.209,1.27V373.746z"/>
	<path fill="#1E1E1E" d="M433.158,355.876v-5.537c0-3.751-7.854-3.751-7.854,0v5.537
		C425.304,359.628,433.158,359.628,433.158,355.876z"/>
	<path fill="#1E1E1E" d="M469.863,342.043L469.863,342.043c0.623,0,1.135,0.51,1.135,1.134v3.667h-2.271v-3.667
		C468.728,342.553,469.238,342.043,469.863,342.043z"/>
	<g>
		<path fill="#F2F1ED" d="M289.008,530.431L289.008,530.431c0-0.693,0.569-1.266,1.265-1.266h2.597c0.695,0,1.265,0.57,1.265,1.266
			l0,0c0,0.695-0.569,1.266-1.265,1.266h-2.597C289.577,531.695,289.008,531.126,289.008,530.431z"/>
		<path fill="#F2F1ED" d="M289.008,527.058L289.008,527.058c0-0.693,0.569-1.266,1.265-1.266h2.597c0.695,0,1.265,0.57,1.265,1.266
			l0,0c0,0.695-0.569,1.268-1.265,1.268h-2.597C289.577,528.324,289.008,527.753,289.008,527.058z"/>
		<path fill="#F2F1ED" d="M289.008,523.685L289.008,523.685c0-0.693,0.569-1.264,1.265-1.264h2.597c0.695,0,1.265,0.568,1.265,1.264
			l0,0c0,0.695-0.569,1.268-1.265,1.268h-2.597C289.577,524.951,289.008,524.38,289.008,523.685z"/>
		<path fill="#FFCB11" d="M289.008,520.314L289.008,520.314c0-0.697,0.569-1.266,1.265-1.266h2.597c0.695,0,1.265,0.568,1.265,1.266
			l0,0c0,0.695-0.569,1.264-1.265,1.264h-2.597C289.577,521.578,289.008,521.009,289.008,520.314z"/>
		<path fill="#FFCB11" d="M289.008,516.941L289.008,516.941c0-0.695,0.569-1.266,1.265-1.266h2.597c0.695,0,1.265,0.57,1.265,1.266
			l0,0c0,0.695-0.569,1.264-1.265,1.264h-2.597C289.577,518.205,289.008,517.636,289.008,516.941z"/>
		<path fill="#00AC9E" d="M289.008,513.568L289.008,513.568c0-0.695,0.569-1.264,1.265-1.264h2.597c0.695,0,1.265,0.568,1.265,1.264
			l0,0c0,0.695-0.569,1.266-1.265,1.266h-2.597C289.577,514.833,289.008,514.263,289.008,513.568z"/>
		<path fill="#00AC9E" d="M289.008,510.195L289.008,510.195c0-0.695,0.569-1.264,1.265-1.264h2.597c0.695,0,1.265,0.568,1.265,1.264
			l0,0c0,0.697-0.569,1.266-1.265,1.266h-2.597C289.577,511.46,289.008,510.892,289.008,510.195z"/>
		<path fill="#00AC9E" d="M289.008,506.824L289.008,506.824c0-0.695,0.569-1.266,1.265-1.266h2.597c0.695,0,1.265,0.57,1.265,1.266
			l0,0c0,0.695-0.569,1.264-1.265,1.264h-2.597C289.577,508.087,289.008,507.519,289.008,506.824z"/>
		<path fill="#00AC9E" d="M289.008,503.451L289.008,503.451c0-0.695,0.569-1.266,1.265-1.266h2.597c0.695,0,1.265,0.57,1.265,1.266
			l0,0c0,0.695-0.569,1.264-1.265,1.264h-2.597C289.577,504.714,289.008,504.146,289.008,503.451z"/>
	</g>
	<path fill="#1E1E1E" d="M320.72,451.968c1.279,0,2.32-1.043,2.32-2.318c0-1.279-1.041-2.32-2.32-2.32
		c-1.277,0-2.32,1.041-2.32,2.32C318.4,450.925,319.443,451.968,320.72,451.968z"/>
	<circle fill="#F2F1ED" cx="320.72" cy="449.648" r="0.709"/>
	<path fill="#F2F1ED" d="M162.989,390.813c2.75-18.792,18.934-33.222,38.49-33.222s35.74,14.43,38.49,33.222H162.989z"/>
	<path fill="#F2F1ED" d="M201.479,354.489c3.059,0,5.553-2.495,5.553-5.553c0-3.059-2.495-5.554-5.553-5.554
		c-3.059,0-5.553,2.495-5.553,5.554C195.926,351.994,198.42,354.489,201.479,354.489z"/>
	<path fill="#72746E" d="M202.212,367.86c-0.887,0-1.605-0.719-1.605-1.605c0-0.886,0.719-1.605,1.605-1.605
		c12.507,0,24.132,7.446,28.563,19.28c0.309,0.828-0.112,1.749-0.94,2.057s-1.749-0.113-2.057-0.941
		C223.819,374.473,213.371,367.86,202.212,367.86z"/>
	<path fill="#81837D" d="M181.605,340.33c-0.845-1.708-1.165-3.538-1.018-5.136c0.472-5.133,3.794-7.403,7.068-9.639
		c2.586-1.767,5.135-3.508,5.424-6.821c0.353-4.037-2.428-6.977-5.115-9.818c-3.025-3.199-5.951-6.292-5.454-10.941
		c0.091-0.859,0.862-1.481,1.721-1.39s1.481,0.861,1.39,1.72c-0.346,3.229,2.09,5.805,4.608,8.468
		c3.168,3.35,6.446,6.816,5.972,12.231c-0.419,4.788-3.578,6.946-6.784,9.136c-2.672,1.825-5.385,3.678-5.721,7.337
		c-0.097,1.051,0.118,2.264,0.683,3.416c0.043,0.088,0.904,1.57-0.475,2.359C182.859,341.85,181.852,340.828,181.605,340.33
		L181.605,340.33z M201.031,332.227c1.791-0.957,3.281-2.103,4.487-3.386c2.466-2.625,3.755-5.807,4.005-9.119
		c0.247-3.26-0.522-6.643-2.171-9.728c-1.041-1.948-2.428-3.774-4.128-5.372c-1.488-1.399-3.569-3.48-4.662-6.098
		c-1.044-2.5-1.199-5.597,0.973-9.255c0.439-0.744,0.193-1.704-0.551-2.143c-0.744-0.439-1.704-0.192-2.144,0.551
		c-2.784,4.688-2.55,8.738-1.169,12.047c1.332,3.191,3.712,5.581,5.41,7.176c1.456,1.369,2.638,2.919,3.516,4.563
		c1.367,2.559,2.006,5.35,1.803,8.026c-0.198,2.623-1.215,5.139-3.16,7.208c-0.986,1.049-2.208,1.988-3.679,2.774
		c-0.761,0.406-1.048,1.352-0.643,2.112C199.324,332.345,200.27,332.633,201.031,332.227z"/>
	<path fill="none" d="M356.519,491.115c0-5.578-4.535-10.115-10.113-10.115H292.37c-5.576,0-10.114,4.537-10.114,10.115v54.035
		c0,0.629,0.062,1.244,0.172,1.842h73.921c0.111-0.598,0.172-1.213,0.172-1.842v-54.035H356.519z"/>
	<path fill="#666B68" d="M282.255,545.15v-54.035c0-5.578,4.538-10.115,10.114-10.115h54.037c5.576,0,10.113,4.537,10.113,10.115
		v54.035c0,0.629-0.061,1.244-0.172,1.842h1.498c0.098-0.6,0.148-1.215,0.148-1.842v-54.035c0-6.391-5.199-11.59-11.59-11.59
		h-54.036c-6.39,0-11.589,5.199-11.589,11.59v54.035c0,0.627,0.052,1.242,0.148,1.842h1.498
		C282.316,546.394,282.255,545.779,282.255,545.15z"/>
	<path fill="#F2F1ED" d="M359.244,437.232v-2.387c0-1.559-1.34-2.854-3.051-3.021v18.348c1.711-0.17,3.051-1.465,3.051-3.021v-1.98
		C362.974,444.751,362.974,437.648,359.244,437.232z"/>
	<path fill="#F2F1ED" d="M281.965,437.232v-2.387c0-1.559,1.339-2.854,3.045-3.021v18.348c-1.706-0.17-3.045-1.465-3.045-3.021
		v-1.98C278.242,444.751,278.242,437.648,281.965,437.232z"/>
</g>
</svg>
