<?xml version="1.0" encoding="utf-8"?>
<!-- Generator: Adobe Illustrator 15.0.2, SVG Export Plug-In . SVG Version: 6.00 Build 0)  -->
<!DOCTYPE svg PUBLIC "-//W3C//DTD SVG 1.1//EN" "http://www.w3.org/Graphics/SVG/1.1/DTD/svg11.dtd">
<svg version="1.1" id="Layer_1" xmlns="http://www.w3.org/2000/svg" xmlns:xlink="http://www.w3.org/1999/xlink" x="0px" y="0px"
	 width="105.88px" height="66.206px" viewBox="244.649 387.427 105.88 66.206"
	 enable-background="new 244.649 387.427 105.88 66.206" xml:space="preserve">
<g>
	<path fill="#1E1E1E" d="M278.707,434.119h40.371c8.291,0,15.074-6.783,15.074-15.075v-27.459c0-1.441-0.205-2.836-0.588-4.158
		h-69.346c-0.382,1.322-0.588,2.717-0.588,4.158v27.459C263.631,427.335,270.415,434.119,278.707,434.119z"/>
	<path fill="#F2F1ED" d="M284.416,426.695h29.16c17.104,0,17.102-25.039,0-25.039h-29.16
		C267.314,401.657,267.312,426.695,284.416,426.695z"/>
	<circle fill="#1E1E1E" cx="313.218" cy="414.166" r="9.595"/>
	<circle fill="#FFCB11" cx="313.218" cy="414.166" r="7.685"/>
	<circle fill="#1E1E1E" cx="284.554" cy="414.166" r="9.616"/>
	<circle fill="#FFCB11" cx="284.554" cy="414.166" r="7.685"/>
	<path fill="#1E1E1E" d="M265.824,439.177h63.529c9.59,0,17.842,6.014,21.176,14.455h-105.88
		C247.984,445.191,256.234,439.177,265.824,439.177z"/>
	<path fill="#FFFFFF" d="M283.966,407.178c0.898,0.058,1.413,0.821,1.38,1.539c-0.031,0.713-0.605,1.38-1.484,1.307
		c-0.022,0-0.045,0-0.068,0c-1.907,0-3.453,1.546-3.453,3.453c0,0.33-0.611,1.183-1.312,1.265c-0.893,0.104-1.36-0.649-1.36-1.265
		C277.667,409.998,280.486,407.178,283.966,407.178z"/>
	<path fill="#FFFFFF" d="M312.464,407.344c0.869,0.056,1.365,0.793,1.334,1.487c-0.031,0.688-0.586,1.333-1.434,1.263
		c-0.023,0-0.045,0-0.068,0c-1.842,0-3.336,1.494-3.336,3.337c0,0.319-0.592,1.143-1.27,1.222c-0.861,0.1-1.314-0.626-1.314-1.222
		C306.376,410.069,309.103,407.344,312.464,407.344z"/>
	<circle fill="#1E1E1E" cx="311.33" cy="415.063" r="4.214"/>
	<circle fill="#1E1E1E" cx="282.666" cy="415.063" r="4.214"/>
	<circle fill="#FFFFFF" cx="280.04" cy="412.15" r="2.027"/>
	<circle fill="#FFFFFF" cx="308.716" cy="412.15" r="2.027"/>
	<path fill="#1E1E1E" d="M336.429,402.617c1.602,0.179,2.855,1.545,2.855,3.189v12.982c0,1.646-1.254,3.011-2.855,3.189V402.617z"/>
	<path fill="#1E1E1E" d="M341.285,408.324c3.936,0.439,3.936,7.937,0,8.377V408.324z"/>
	<path fill="#1E1E1E" d="M261.159,402.617c-1.599,0.179-2.854,1.545-2.854,3.189v12.982c0,1.646,1.255,3.011,2.854,3.189V402.617z"
		/>
	<path fill="#1E1E1E" d="M256.303,408.324c-3.936,0.439-3.936,7.937,0,8.377V408.324z"/>
	<circle fill="#1E1E1E" cx="298.996" cy="421.427" r="2.449"/>
	<circle fill="#F2F1ED" cx="298.996" cy="421.427" r="0.748"/>
</g>
</svg>
