<?xml version="1.0" encoding="utf-8"?>
<!-- Generator: Adobe Illustrator 15.0.2, SVG Export Plug-In . SVG Version: 6.00 Build 0)  -->
<!DOCTYPE svg PUBLIC "-//W3C//DTD SVG 1.1//EN" "http://www.w3.org/Graphics/SVG/1.1/DTD/svg11.dtd">
<svg version="1.1" id="Layer_1" xmlns="http://www.w3.org/2000/svg" xmlns:xlink="http://www.w3.org/1999/xlink" x="0px" y="0px"
	 width="103.027px" height="30.619px" viewBox="246.638 405.473 103.027 30.619"
	 enable-background="new 246.638 405.473 103.027 30.619" xml:space="preserve">
<g>
	<path fill="#FFFFFF" d="M269.334,410.477c-5.211,0.034-6.824,2.971-6.824,7.833v6.295v2.129v2.521l0.001,6.836h1.064
		c1.366,0,2.348-0.555,2.347-2.092c0-1.395-0.001-6.01-0.001-6.912c2.273,0.861,5.214,0.869,7.412-0.209
		c2.032-1,2.962-3.018,2.978-6.22c0.004-0.852,0.007-1.769,0.009-2.924C276.325,413.166,274.514,410.477,269.334,410.477z
		 M273.087,421.236c-0.192,2.404-1.373,3.222-3.523,3.375c-2.12,0.15-3.789-0.992-3.789-3.074v-3.359
		c0-2.146,0.097-4.394,3.792-4.389c3.053,0.003,3.517,1.746,3.522,3.856C273.093,419.295,273.093,421.171,273.087,421.236z"/>
	<path fill="#FFFFFF" d="M260.55,420.394v-2.128v-1.737c0-4.035-3.043-5.774-6.825-5.8h-5.417v3.267h5.579
		c0.951,0,1.899,0.239,2.418,0.562c0.908,0.566,0.927,1.667-0.442,2.074c-0.617,0.185-1.51,0.318-2.766,0.428
		c-1.321,0.116-2.721,0.435-3.887,1.112c-1.977,1.15-2.886,3.251-2.475,5.515c0.248,1.367,1.017,2.383,2.039,3.053
		c1.255,0.824,2.892,1.146,4.414,1.184c2.21,0.053,4.47-0.578,5.87-1.828c1.626-1.453,1.493-2.738,1.493-4.67L260.55,420.394
		L260.55,420.394z M257.285,422.203c0,2.932-5.314,2.938-6.703,1.807c-1.176-0.961-0.888-2.745,0.899-3.427
		c1.823-0.696,3.751-0.398,5.803-1.305L257.285,422.203L257.285,422.203z"/>
	<path fill="#FFFFFF" d="M285.138,410.477c-5.211,0.034-6.824,2.971-6.824,7.833v6.295v2.129v2.521l0.001,6.836h1.064
		c1.366,0,2.347-0.555,2.347-2.092c0-1.395-0.001-6.01-0.001-6.912c2.273,0.861,5.214,0.869,7.411-0.209
		c2.033-1,2.963-3.018,2.979-6.22c0.004-0.852,0.007-1.769,0.009-2.924C292.129,413.166,290.317,410.477,285.138,410.477z
		 M288.891,421.236c-0.192,2.404-1.373,3.222-3.523,3.375c-2.12,0.15-3.789-0.992-3.789-3.074v-3.359
		c0-2.146,0.096-4.394,3.792-4.389c3.053,0.003,3.517,1.746,3.522,3.856C288.897,419.295,288.896,421.171,288.891,421.236z"/>
	<path fill="#FFFFFF" d="M313.462,415.442c-0.02-0.909-0.154-1.755-0.803-2.597c-1.229-1.596-3.713-2.385-6.184-2.369
		c-2.014,0.014-4.02,0.667-5.33,1.839c-1.627,1.453-1.493,2.739-1.493,4.671v1.028v2.128v2.523c0,3.119,3.399,4.992,6.823,5.016
		h5.836v-3.268h-5.996c-2.1,0-3.281-0.828-3.253-1.744c0.032-1.033,1.063-1.407,4.042-1.667c2.053-0.179,4.293-0.847,5.555-2.595
		c0.65-0.903,0.785-1.792,0.803-2.745h0.002v-0.108v-0.112H313.462z M308.623,417.604c-1.822,0.696-3.651,0.25-5.705,1.156v-2.387
		c0-2.063,2.088-2.586,3.793-2.583c0.334,0,0.666,0.018,0.984,0.053C310.708,414.172,311.07,416.668,308.623,417.604z"/>
	<path fill="#FFFFFF" d="M295.343,405.473h-1.206v22.208h3.266v-19.852C297.403,406.464,297.171,405.473,295.343,405.473z"/>
	<path fill="#FFFFFF" d="M349.666,415.442h-0.002c-0.02-0.909-0.154-1.755-0.803-2.597c-1.23-1.596-3.713-2.385-6.184-2.369
		c-2.014,0.014-4.021,0.667-5.332,1.839c-1.625,1.453-1.492,2.739-1.492,4.671v1.028v2.128v2.523c0,3.119,3.4,4.992,6.824,5.016
		h5.836v-3.268h-5.998c-2.098,0-3.279-0.828-3.252-1.744c0.033-1.033,1.064-1.407,4.043-1.667c2.051-0.179,4.293-0.847,5.555-2.595
		c0.65-0.903,0.783-1.792,0.803-2.745h0.002v-0.108V415.442L349.666,415.442z M344.824,417.604c-1.822,0.696-3.652,0.25-5.705,1.156
		v-2.387c0-2.063,2.088-2.586,3.793-2.583c0.334,0,0.666,0.018,0.982,0.053C346.91,414.172,347.271,416.668,344.824,417.604z"/>
	<path fill="#FFFFFF" d="M332.146,405.473h-1.205v3.259h3.266v-0.902C334.207,406.464,333.974,405.473,332.146,405.473z"/>
	<path fill="#FFFFFF" d="M322.062,410.477c-5.211,0.034-6.824,2.971-6.824,7.833v6.295v2.129v2.521l0.002,6.836h1.062
		c1.365,0,2.348-0.555,2.348-2.092c0-1.395-0.002-6.01-0.002-6.912c2.273,0.861,5.215,0.869,7.412-0.209
		c2.031-1,2.961-3.018,2.979-6.22c0.004-0.852,0.008-1.769,0.008-2.924C329.054,413.166,327.242,410.477,322.062,410.477z
		 M325.816,421.236c-0.191,2.404-1.373,3.222-3.523,3.375c-2.121,0.15-3.789-0.992-3.789-3.074v-3.359
		c0-2.146,0.096-4.394,3.793-4.389c3.053,0.003,3.516,1.746,3.521,3.856C325.822,419.295,325.822,421.171,325.816,421.236z"/>
	<path fill="#FFFFFF" d="M332.146,410.728h-1.205v16.954h3.266v-14.597C334.207,411.719,333.974,410.728,332.146,410.728z"/>
</g>
</svg>
