<svg xmlns="http://www.w3.org/2000/svg" xmlns:xlink="http://www.w3.org/1999/xlink" id="Layer_1" width="46.354" height="53.593" x="0" y="0" enable-background="new 0 0 46.354 53.593" version="1.1" viewBox="0 0 46.354 53.593" xml:space="preserve"><g><path fill="#FFF" d="M23.317,13.339C22.504,4.4,28.609-1.081,36.827,0.18C37.806,8.25,31.71,14.095,23.317,13.339z"/><path fill="#FFF" d="M23.169,16.15c9.204,0,17.127,5.08,20.711,12.389c-0.244-0.023-0.494-0.035-0.748-0.035 c-2.258,0-4.389,0.947-6.004,2.438c-1.062-2.855-3.658-5-7.104-5c-2.92,0-5.398,1.561-6.898,3.801 c-1.497-2.24-3.973-3.801-6.894-3.801c-3.422,0-6.007,2.125-7.083,4.953c-1.617-1.463-3.731-2.389-5.965-2.389 c-0.249,0-0.493,0.014-0.731,0.033C6.042,21.23,13.967,16.15,23.169,16.15z"/><path fill="#FFF" d="M3.702,32.539L3.702,32.539c2.694,0,5.271,2.355,5.699,5.068c0.506,3.205,0.977,6.166,1.41,8.898 c0.403,2.535,0.777,4.895,1.125,7.084c-2.447,0-4.419,0-6.852,0l-4.87-15.984C-0.606,34.914,1.01,32.539,3.702,32.539L3.702,32.539 z M42.618,32.539L42.618,32.539c2.691,0,4.338,2.387,3.529,5.074l-4.805,15.979c-2.457,0-4.43,0-6.869,0 c0.342-2.197,0.707-4.559,1.098-7.09c0.422-2.729,0.879-5.688,1.377-8.891C37.368,34.902,39.925,32.539,42.618,32.539 L42.618,32.539z M29.847,29.974c-2.816,0-5.168,2.648-5.225,5.689c-0.066,3.594-0.129,6.914-0.186,9.979 c-0.053,2.84-0.102,5.488-0.152,7.951c2.555,0,5.109,0,7.67,0c0.316-2.467,0.658-5.113,1.02-7.953 c0.393-3.064,0.812-6.381,1.271-9.975C34.632,32.625,32.673,29.974,29.847,29.974L29.847,29.974L29.847,29.974z M16.413,29.974 c-2.812,0-4.779,2.646-4.396,5.688c0.454,3.596,0.874,6.916,1.261,9.984c0.359,2.842,0.688,5.484,0.998,7.945 c2.553,0,5.109,0,7.668,0c-0.041-2.463-0.087-5.105-0.138-7.947c-0.055-3.066-0.114-6.389-0.178-9.98 C21.575,32.623,19.232,29.974,16.413,29.974L16.413,29.974z"/></g></svg>