<?xml version="1.0" encoding="utf-8"?>
<!-- Generator: Adobe Illustrator 15.0.2, SVG Export Plug-In . SVG Version: 6.00 Build 0)  -->
<!DOCTYPE svg PUBLIC "-//W3C//DTD SVG 1.1//EN" "http://www.w3.org/Graphics/SVG/1.1/DTD/svg11.dtd">
<svg version="1.1" id="Layer_1" xmlns="http://www.w3.org/2000/svg" xmlns:xlink="http://www.w3.org/1999/xlink" x="0px" y="0px"
	 width="46.354px" height="53.593px" viewBox="274.283 393.963 46.354 53.593"
	 enable-background="new 274.283 393.963 46.354 53.593" xml:space="preserve">
<g>
	<path fill="#0FB9A9" d="M297.6,407.302c-0.814-8.94,5.291-14.419,13.509-13.159C312.089,402.212,305.992,408.059,297.6,407.302z"/>
	<path fill="#F2F1ED" d="M297.451,410.113c9.203,0,17.128,5.08,20.712,12.388c-0.244-0.023-0.494-0.035-0.748-0.035
		c-2.258,0-4.389,0.947-6.004,2.438c-1.062-2.855-3.658-5-7.104-5c-2.92,0-5.398,1.561-6.898,3.801
		c-1.497-2.24-3.972-3.801-6.893-3.801c-3.422,0-6.007,2.124-7.083,4.952c-1.617-1.461-3.732-2.387-5.965-2.387
		c-0.249,0-0.493,0.012-0.731,0.033C280.324,415.193,288.249,410.113,297.451,410.113z"/>
	<path fill="#EF4723" d="M277.985,426.501L277.985,426.501c2.694,0,5.271,2.355,5.699,5.068c0.506,3.205,0.976,6.166,1.41,8.9
		c0.403,2.535,0.777,4.893,1.125,7.084c-2.447,0-4.419,0-6.852,0l-4.87-15.986C273.677,428.876,275.292,426.501,277.985,426.501
		L277.985,426.501z M316.9,426.501L316.9,426.501c2.693,0,4.338,2.387,3.531,5.074l-4.805,15.979c-2.457,0-4.43,0-6.869,0
		c0.342-2.197,0.707-4.559,1.096-7.09c0.422-2.729,0.879-5.688,1.377-8.891C311.65,428.865,314.207,426.501,316.9,426.501
		L316.9,426.501z M304.13,423.937c-2.816,0-5.168,2.648-5.225,5.689c-0.066,3.594-0.128,6.914-0.185,9.979
		c-0.054,2.84-0.103,5.488-0.152,7.951c2.554,0,5.108,0,7.669,0c0.316-2.467,0.658-5.113,1.02-7.953
		c0.391-3.064,0.812-6.381,1.271-9.975C308.914,426.587,306.955,423.937,304.13,423.937L304.13,423.937L304.13,423.937z
		 M290.696,423.937c-2.812,0-4.78,2.646-4.396,5.688c0.454,3.596,0.874,6.916,1.261,9.984c0.359,2.842,0.688,5.484,0.998,7.945
		c2.553,0,5.109,0,7.668,0c-0.041-2.463-0.087-5.105-0.138-7.947c-0.055-3.066-0.114-6.389-0.178-9.98
		C295.858,426.585,293.515,423.937,290.696,423.937L290.696,423.937z"/>
</g>
</svg>
